<svg id="Capa_1" enable-background="new 0 0 512 512" height="512" viewBox="0 0 512 512" width="512" xmlns="http://www.w3.org/2000/svg" xmlns:xlink="http://www.w3.org/1999/xlink"><radialGradient id="SVGID_1_" cx="391.714" cy="796.175" gradientTransform="matrix(.931 0 0 .112 -111.519 372.032)" gradientUnits="userSpaceOnUse" r="219.323"><stop offset="0" stop-color="#c6c1c8"/><stop offset=".2432" stop-color="#dddbdf"/><stop offset=".4962" stop-color="#f1f1f4"/><stop offset=".888" stop-color="#fff"/></radialGradient><linearGradient id="lg1"><stop offset=".0353" stop-color="#dfdde2"/><stop offset=".2285" stop-color="#d5d2d8"/><stop offset=".5685" stop-color="#b9b4bd"/><stop offset=".6715" stop-color="#afaab4"/><stop offset="1" stop-color="#a298a5"/></linearGradient><radialGradient id="SVGID_2_" cx="19.506" cy="418.198" gradientTransform="matrix(1 0 0 .843 0 65.728)" gradientUnits="userSpaceOnUse" r="99.157" xlink:href="#lg1"/><radialGradient id="SVGID_3_" cx="20.201" cy="65.4" gradientUnits="userSpaceOnUse" r="351.826"><stop offset="0" stop-color="#fff"/><stop offset=".0652" stop-color="#fdfdfd"/><stop offset=".5145" stop-color="#f1f1f4"/><stop offset=".9782" stop-color="#dfdde2"/></radialGradient><radialGradient id="SVGID_4_" cx="397.279" cy="187.057" gradientUnits="userSpaceOnUse" r="488.394"><stop offset="0" stop-color="#dfdde2"/><stop offset=".3527" stop-color="#bfbbc4"/><stop offset=".5878" stop-color="#afaab4"/><stop offset="1" stop-color="#a298a5"/></radialGradient><radialGradient id="SVGID_5_" cx="29.98" cy="45.35" gradientUnits="userSpaceOnUse" r="367.058"><stop offset="0" stop-color="#fbe2dd"/><stop offset=".5145" stop-color="#eab1b7"/><stop offset="1" stop-color="#e4989d"/></radialGradient><radialGradient id="SVGID_6_" cx="392.251" cy="178.08" gradientUnits="userSpaceOnUse" r="461.434"><stop offset="0" stop-color="#8b818e"/><stop offset=".5391" stop-color="#665e66"/><stop offset="1" stop-color="#454045"/></radialGradient><radialGradient id="SVGID_7_" cx="408.356" cy="181.791" gradientUnits="userSpaceOnUse" r="412.884"><stop offset=".0988" stop-color="#dd636e"/><stop offset=".5649" stop-color="#d82e3d"/><stop offset=".6885" stop-color="#d32e3b"/><stop offset=".8402" stop-color="#c42f37"/><stop offset="1" stop-color="#ac3030"/></radialGradient><radialGradient id="SVGID_8_" cx="181.662" cy="83.283" gradientUnits="userSpaceOnUse" r="60.799" xlink:href="#lg1"/><radialGradient id="SVGID_9_" cx="427.195" cy="83.283" gradientUnits="userSpaceOnUse" r="60.799" xlink:href="#lg1"/><g><path d="m256 486.822c117.521 0 212.791-11.672 212.791-26.07h-425.582c0 14.398 95.27 26.07 212.791 26.07z" fill="url(#SVGID_1_)"/><path d="m94.905 400.939-94.905 32.838v10.086c0 9.327 7.561 16.888 16.888 16.888h65.35c-9.327.001 12.667-59.812 12.667-59.812z" fill="url(#SVGID_2_)"/><path d="m0 120.169v313.608h99.531s-4.009-204.741-8.848-325.46z" fill="url(#SVGID_3_)"/><path d="m65.35 120.169v323.694c0 9.327 7.561 16.888 16.888 16.888h401.797c9.327 0 16.888-7.561 16.888-16.888v-323.694l-302.761-24.624z" fill="url(#SVGID_4_)"/><path d="m93.315 25.178h-76.427c-9.327 0-16.888 7.561-16.888 16.888v78.103h93.201c-2.204-54.98-2.805-94.991.114-94.991z" fill="url(#SVGID_5_)"/><path d="m407.41 224.422-41.152-41.152-107.452 107.452-58.79-58.79-41.152 41.153 99.942 99.942z" fill="url(#SVGID_6_)"/><path d="m512 42.066c0-9.327-7.561-16.888-16.888-16.888h-401.797c-9.327 0-16.888 7.561-16.888 16.888v78.103h435.573z" fill="url(#SVGID_7_)"/><circle cx="171.447" cy="72.674" fill="url(#SVGID_8_)" r="23.625"/><circle cx="416.98" cy="72.674" fill="url(#SVGID_9_)" r="23.625"/></g></svg>