<svg height="512pt" viewBox="0 -11 512 512" width="512pt" xmlns="http://www.w3.org/2000/svg"><path d="m50.964844 365.246094h407.523437c20.054688-35.523438 31.507813-76.546875 31.507813-120.246094 0-135.308594-109.6875-245-245-245-72.679688 0-137.957032 31.660156-182.824219 81.929688zm0 0" fill="#66bf10"/><path d="m31.507812 365.246094c42.03125 74.464844 121.882813 124.75 213.492188 124.75 91.605469 0 171.457031-50.285156 213.492188-124.75zm0 0" fill="#ad4c2e"/><path d="m201.066406 365.246094c76.683594 0 83.664063 108.945312 14.789063 123.03125 9.558593 1.132812 19.28125 1.71875 29.144531 1.71875 91.605469 0 171.457031-50.285156 213.492188-124.75zm0 0" fill="#993d23"/><path d="m452.445312 371.371094-33.765624-58.488282c-1.621094-2.804687-4.640626-4.550781-7.882813-4.550781h-56.007813c-3.242187 0-6.261718 1.746094-7.882812 4.550781l-33.765625 58.488282c-.835937 1.449218-1.96875 2.621094-3.265625 3.511718 3.28125 37.398438 34.664062 66.738282 72.917969 66.738282 38.257812 0 69.644531-29.347656 72.921875-66.753906-1.316406-.902344-2.445313-2.078126-3.269532-3.496094zm0 0" fill="#24447f"/><path d="m429.160156 425.042969c-18.261718-2.304688-19.066406-13.855469-18.210937-19.808594.265625-1.84375-.976563-3.53125-2.804688-3.902344-7.433593-1.523437-8.613281-7.757812-8.703125-11.066406-.035156-1.289063-.753906-2.46875-1.910156-3.042969-22.660156-11.324218-25.644531-31.460937-25.980469-38.382812-.070312-1.410156-.992187-2.609375-2.316406-3.101563-7.570313-2.816406-7.425781-9.242187-6.597656-12.976562.355469-1.59375-.414063-3.253907-1.882813-3.972657-9.398437-4.597656-8.070312-12.976562-6.808594-16.90625.382813-1.191406.097657-2.488281-.746093-3.394531-2.613281.46875-4.941407 2.054688-6.292969 4.394531l-33.765625 58.484376c-.839844 1.453124-1.96875 2.625-3.269531 3.515624 3.285156 37.398438 34.667968 66.734376 72.921875 66.734376 17.605469.003906 33.742187-6.222657 46.367187-16.574219zm0 0" fill="#1a396b"/><path d="m0 245c0 44.277344 11.75 85.808594 32.296875 121.65625h106.957031v-284.726562h-77.082031c-38.660156 43.316406-62.171875 100.441406-62.171875 163.070312zm0 0" fill="#ff6f5c"/><path d="m64.699219 365.601562c-4.734375-1.609374-8.167969-6.097656-8.167969-11.355468v-265.75c-35.289062 42.449218-56.53125 96.988281-56.53125 156.503906 0 44.277344 11.75 85.808594 32.296875 121.65625h32.402344zm0 0" fill="#e20a62"/><path d="m58.324219 179.742188 39.683593-38.335938c1.992188-1.921875 2.105469-5.078125.253907-7.140625l-41.410157-46.179687c-21.386718 25.617187-37.640624 55.667968-47.179687 88.570312l21.234375 23.679688c1.851562 2.0625 1.738281 5.21875-.253906 7.140624l-30.507813 29.46875c-.0859372 2.675782-.144531 5.359376-.144531 8.054688 0 6.644531.273438 13.222656.792969 19.730469l87.234375 101.925781h123.90625l-153.941406-179.863281c-1.773438-2.066407-1.625-5.15625.332031-7.050781zm0 0" fill="#e20a62"/><path d="m56.53125 88.480469c-21.226562 25.53125-37.367188 55.4375-46.859375 88.175781l21.234375 23.679688c1.851562 2.0625 1.738281 5.21875-.253906 7.140624l-30.507813 29.46875c-.0859372 2.675782-.144531 5.359376-.144531 8.054688 0 6.644531.273438 13.222656.792969 19.730469l55.738281 65.125zm0 0" fill="#c40955"/><path d="m467.039062 220.707031-114.375-26.300781c-3.933593-.902344-7.667968-2.460938-11.0625-4.582031-1.742187 10.726562-11.066406 18.941406-22.28125 18.941406h-7.523437c-3.6875 0-6.925781-1.945313-8.757813-4.859375h-135.878906c-3.324218 0-6.023437-2.703125-6.023437-6.023438v-82.984374c0-3.324219 2.699219-6.027344 6.023437-6.027344h89.414063c-20.0625-17.328125-45.742188-26.941406-72.394531-26.941406h-52.046876v192.488281l78.945313 92.238281h81.8125c-.148437-2.132812.339844-4.257812 1.433594-6.148438l33.765625-58.488281c5.492187-9.507812 15.722656-15.414062 26.699218-15.414062h56.007813c10.976563 0 21.210937 5.90625 26.699219 15.414062l9.429687 16.332031h48.644531v-61.8125c0-17.132812-11.835937-31.992187-28.53125-35.832031zm0 0" fill="#e0e7fc"/><path d="m195.9375 337.546875v-133.640625h-28.777344c-3.320312 0-6.023437-2.703125-6.023437-6.023438v-82.984374c0-3.324219 2.703125-6.023438 6.023437-6.023438h28.90625c.878906-9.960938 6.457032-18.617188 14.492188-23.730469-8.566406-2.101562-17.414063-3.214843-26.378906-3.214843h-52.046876v192.488281l70.015626 81.804687c-3.898438-5.226562-6.210938-11.695312-6.210938-18.675781zm0 0" fill="#cad4ef"/><path d="m417.136719 368.914062c0 18.964844-15.375 34.339844-34.34375 34.339844-18.964844 0-34.339844-15.375-34.339844-34.339844 0-18.964843 15.375-34.339843 34.339844-34.339843 18.96875 0 34.34375 15.375 34.34375 34.339843zm0 0" fill="#e0e7fc"/><path d="m401.761719 397.539062c-1.832031-2.40625-2.269531-5.339843-2.320313-7.273437-.035156-1.289063-.753906-2.464844-1.910156-3.042969-22.660156-11.324218-25.644531-31.460937-25.980469-38.382812-.070312-1.410156-.992187-2.605469-2.316406-3.097656-3.210937-1.195313-5.023437-3.042969-5.996094-5.054688-8.933593 6.203125-14.785156 16.527344-14.785156 28.226562 0 18.964844 15.375 34.339844 34.339844 34.339844 7.011719 0 13.53125-2.105468 18.96875-5.714844zm0 0" fill="#cad4ef"/><path d="m382.792969 412.660156c-24.121094 0-43.746094-19.625-43.746094-43.746094 0-24.125 19.625-43.75 43.746094-43.75 24.121093 0 43.746093 19.625 43.746093 43.75 0 24.121094-19.625 43.746094-43.746093 43.746094zm0-68.679687c-13.746094 0-24.933594 11.183593-24.933594 24.933593s11.1875 24.933594 24.933594 24.933594c13.75 0 24.933593-11.183594 24.933593-24.933594s-11.183593-24.933593-24.933593-24.933593zm0 0" fill="#3567c3"/><path d="m410.390625 402.828125c-.503906-.746094-1.292969-1.300781-2.246094-1.496094-7.433593-1.523437-8.613281-7.753906-8.703125-11.066406-.019531-.792969-.300781-1.539063-.78125-2.132813-4.3125 3.570313-9.84375 5.714844-15.867187 5.714844-13.75 0-24.933594-11.183594-24.933594-24.933594 0-9.445312 5.277344-17.679687 13.039063-21.910156-.40625-.5625-.980469-1.007812-1.664063-1.261718-7.574219-2.820313-7.425781-9.242188-6.597656-12.976563.191406-.863281.046875-1.738281-.351563-2.476563-13.8125 7.363282-23.238281 21.910157-23.238281 38.625 0 24.125 19.625 43.75 43.746094 43.75 10.457031-.003906 20.0625-3.695312 27.597656-9.835937zm0 0" fill="#2d56a1"/><path d="m468.953125 356.507812h31.488281c2.433594 0 4.667969.863282 6.414063 2.292969v-30.570312c0-6.207031-5.078125-11.289063-11.285157-11.289063h-49.460937zm0 0" fill="#cad4ef"/><path d="m479.101562 345.917969c-7.410156-12.832031 1.792969-28.855469 16.570313-28.96875-.035156 0-.066406-.007813-.101563-.007813h-49.460937l22.84375 39.566406h28.492187c-7.566406 0-14.558593-4.035156-18.34375-10.589843zm0 0" fill="#b0c3ea"/><path d="m495.570312 258.179688h-26.9375c-9.550781 0-17.363281 7.8125-17.363281 17.359374 0 9.949219 8.066407 18.019532 18.019531 18.019532h26.28125zm0 0" fill="#4dd8f6"/><path d="m476.484375 275.539062c0-9.550781 7.8125-17.359374 17.359375-17.359374h-25.210938c-9.550781 0-17.363281 7.808593-17.363281 17.359374 0 9.949219 8.066407 18.019532 18.019531 18.019532h25.214844c-9.953125-.003906-18.019531-8.070313-18.019531-18.019532zm0 0" fill="#34b8ee"/><path d="m211.773438 240.90625h-25.242188c-3.894531 0-7.054688-3.160156-7.054688-7.054688 0-3.898437 3.160157-7.054687 7.054688-7.054687h25.242188c3.898437 0 7.054687 3.15625 7.054687 7.054687 0 3.894532-3.15625 7.054688-7.054687 7.054688zm0 0" fill="#cad4ef"/><path d="m132.132812 366.65625h79.800782l-79.800782-93.238281zm0 0" fill="#c40955"/><path d="m500.441406 355.097656h-30.671875l-7.902343 23.117188h38.574218c6.382813 0 11.558594-5.175782 11.558594-11.558594s-5.175781-11.558594-11.558594-11.558594zm0 0" fill="#2d56a1"/><path d="m300.417969 366.570312-.078125-1.324218h-268.832032c5.492188 9.730468 11.628907 19.042968 18.351563 27.890625h242.234375c8.804688 0 15.941406-7.136719 15.941406-15.941407v-.890624c-.761718-.238282-1.503906-.550782-2.210937-.960938-3.167969-1.828125-5.1875-5.105469-5.40625-8.773438zm0 0" fill="#2d56a1"/><path d="m305.824219 375.347656c-3.167969-1.832031-5.1875-5.109375-5.40625-8.777344l-.078125-1.324218h-47.140625c5.886719 1.902344 10.148437 7.421875 10.148437 13.945312 0 6.519532-4.261718 12.042969-10.148437 13.945313h38.894531c8.804688 0 15.941406-7.136719 15.941406-15.941407v-.890624c-.761718-.238282-1.503906-.550782-2.210937-.957032zm0 0" fill="#24447f"/><path d="m261.230469 113.121094c-2.039063-1.972656-4.148438-3.859375-6.316407-5.65625h-87.753906c-4.105468 0-7.4375 3.324218-7.4375 7.433594v82.984374c0 4.105469 3.332032 7.433594 7.4375 7.433594h136.945313c-1.644531-1.832031-2.65625-4.246094-2.65625-6.898437v-24.457031c0-5.714844 4.632812-10.347657 10.347656-10.347657h1.574219zm0 0" fill="#7eeafc"/><path d="m251.722656 197.882812v-82.984374c0-2.910157 1.675782-5.421876 4.109375-6.644532-.308593-.261718-.609375-.535156-.921875-.792968h-87.753906c-4.105469 0-7.433594 3.328124-7.433594 7.433593v82.988281c0 4.105469 3.332032 7.433594 7.433594 7.433594h92c-4.101562 0-7.433594-3.328125-7.433594-7.433594zm0 0" fill="#4dd8f6"/><path d="m189.191406 197.882812v-82.984374c0-4.109376 3.328125-7.433594 7.433594-7.433594h-29.464844c-4.105468 0-7.433594 3.324218-7.433594 7.433594v82.984374c0 4.105469 3.328126 7.433594 7.433594 7.433594h29.464844c-4.105469 0-7.433594-3.328125-7.433594-7.433594zm0 0" fill="#34b8ee"/><path d="m319.320312 162.675781h-7.523437c-6.207031 0-11.289063 5.078125-11.289063 11.289063v24.457031c0 6.207031 5.082032 11.285156 11.289063 11.285156h7.523437c12.9375 0 23.519532-10.582031 23.519532-23.515625s-10.582032-23.515625-23.519532-23.515625zm0 0" fill="#3567c3"/><path d="m319.320312 186.191406h-7.523437c-6.207031 0-11.289063-5.078125-11.289063-11.289062v23.515625c0 6.210937 5.082032 11.289062 11.289063 11.289062h7.523437c12.9375 0 23.519532-10.582031 23.519532-23.515625 0-4.277344-1.164063-8.292968-3.179688-11.757812-4.082031 7.011718-11.679687 11.757812-20.339844 11.757812zm0 0" fill="#2d56a1"/><path d="m461.867188 378.214844c-4.242188 0-8.367188-2.203125-10.640626-6.140625l-33.765624-58.484375c-1.371094-2.371094-3.925782-3.847656-6.664063-3.847656h-56.007813c-2.738281 0-5.292968 1.476562-6.660156 3.847656l-33.765625 58.484375c-3.390625 5.871093-10.894531 7.882812-16.769531 4.492187-5.871094-3.386718-7.878906-10.894531-4.492188-16.765625l33.765626-58.484375c5.742187-9.945312 16.441406-16.121094 27.921874-16.121094h56.007813c11.480469 0 22.179687 6.175782 27.921875 16.121094l33.765625 58.484375c3.390625 5.871094 1.378906 13.378907-4.492187 16.765625-1.933594 1.117188-4.042969 1.648438-6.125 1.648438zm0 0" fill="#3567c3"/><path d="m297.59375 376.566406c5.875 3.390625 13.378906 1.378906 16.769531-4.492187l33.765625-58.484375c1.230469-2.128906 3.414063-3.527344 5.828125-3.789063-.175781-.570312-.492187-1.101562-.949219-1.515625-11.011718-9.949218-1.476562-21.894531-.554687-23-10.578125.777344-20.234375 6.765625-25.585937 16.03125l-33.765626 58.484375c-3.386718 5.871094-1.378906 13.378907 4.492188 16.765625zm0 0" fill="#2d56a1"/><path d="m186.53125 243.257812h-9.25c-5.191406 0-9.40625-4.210937-9.40625-9.40625 0-5.195312 4.214844-9.40625 9.40625-9.40625h9.25c5.195312 0 9.40625 4.210938 9.40625 9.40625 0 5.195313-4.210938 9.40625-9.40625 9.40625zm0 0" fill="#b0c3ea"/></svg>