<svg id="Capa_1" enable-background="new 0 0 512 512" height="512" viewBox="0 0 512 512" width="512" xmlns="http://www.w3.org/2000/svg" xmlns:xlink="http://www.w3.org/1999/xlink"><radialGradient id="SVGID_1_" cx="172.764" cy="350.771" gradientUnits="userSpaceOnUse" r="172.246"><stop offset="0" stop-color="#e4989d"/><stop offset=".1925" stop-color="#e38d93"/><stop offset=".5311" stop-color="#df6f79"/><stop offset=".6532" stop-color="#dd636e"/><stop offset="1" stop-color="#da4a54"/></radialGradient><radialGradient id="SVGID_2_" cx="68.098" cy="38.346" gradientUnits="userSpaceOnUse" r="309.968"><stop offset="0" stop-color="#fbe2dd"/><stop offset=".5145" stop-color="#eab1b7"/><stop offset="1" stop-color="#e4989d"/></radialGradient><radialGradient id="SVGID_3_" cx="475.745" cy="213.577" gradientUnits="userSpaceOnUse" r="392.992"><stop offset=".0988" stop-color="#dd636e"/><stop offset=".5649" stop-color="#d82e3d"/><stop offset=".6885" stop-color="#d32e3b"/><stop offset=".8402" stop-color="#c42f37"/><stop offset="1" stop-color="#ac3030"/></radialGradient><radialGradient id="SVGID_4_" cx="310.787" cy="228.427" gradientTransform="matrix(-.707 -.707 .792 -.792 349.559 629.173)" gradientUnits="userSpaceOnUse" r="292.25"><stop offset="0" stop-color="#dfdde2"/><stop offset=".252" stop-color="#c9c6cd"/><stop offset=".5077" stop-color="#afaab4"/><stop offset=".89" stop-color="#a298a5"/></radialGradient><radialGradient id="SVGID_5_" cx="431.672" cy="1506.96" gradientTransform="matrix(.931 0 0 .112 -147.994 325.021)" gradientUnits="userSpaceOnUse" r="158.067"><stop offset="0" stop-color="#eab1b7"/><stop offset=".1527" stop-color="#eebdc1"/><stop offset=".4962" stop-color="#f6d3d5"/><stop offset=".888" stop-color="#fff"/></radialGradient><g><path d="m122.289 370.925c47.292 70.864 99.646 122.286 99.646 122.286h68.131s-2.231-88.808-12.635-159.067z" fill="url(#SVGID_1_)"/><path d="m290.065 0h-68.131c-96.163 0-174.119 77.956-174.119 174.119 0 66.877 35.52 138.436 74.474 196.806h147.228c-21.629-146.064-44.382-370.925 20.548-370.925z" fill="url(#SVGID_2_)"/><path d="m464.185 174.119c0 148.07-174.119 319.092-174.119 319.092s-174.12-171.022-174.12-319.092c0-96.163 77.956-174.119 174.119-174.119s174.12 77.956 174.12 174.119z" fill="url(#SVGID_3_)"/><circle cx="290.065" cy="174.119" fill="url(#SVGID_4_)" r="104.295"/><path d="m256 512c84.698 0 153.359-8.412 153.359-18.789h-306.718c0 10.377 68.661 18.789 153.359 18.789z" fill="url(#SVGID_5_)"/></g></svg>