<?xml version="1.0" standalone="no"?>
<!DOCTYPE svg PUBLIC "-//W3C//DTD SVG 20010904//EN"
 "http://www.w3.org/TR/2001/REC-SVG-20010904/DTD/svg10.dtd">
<svg version="1.0" xmlns="http://www.w3.org/2000/svg"
 width="200.000000pt" height="200.000000pt" viewBox="0 0 200.000000 200.000000"
 preserveAspectRatio="xMidYMid meet">

<g transform="translate(0.000000,200.000000) scale(0.100000,-0.100000)"
fill="#0000" stroke="none">
<path d="M1102 1383 c-6 -2 -10 -9 -7 -14 4 -5 0 -6 -8 -3 -14 5 -265 -73
-277 -85 -3 -3 -3 -5 -1 -4 2 2 10 -2 18 -9 7 -6 37 -23 65 -38 42 -22 58 -39
83 -84 43 -81 56 -75 95 42 52 158 51 152 32 144 -15 -5 -15 -4 -3 11 7 9 17
14 22 11 5 -3 9 4 9 15 0 21 -5 24 -28 14z"/>
<path d="M404 935 c-13 -13 -24 -31 -24 -39 0 -8 -6 -17 -12 -20 -10 -5 -10
-7 0 -12 8 -4 12 -28 12 -70 0 -50 3 -64 15 -64 12 0 15 14 15 65 0 58 2 65
20 65 11 0 20 5 20 10 0 6 -9 10 -21 10 -32 0 -22 52 11 60 22 5 23 7 7 13
-12 5 -26 -1 -43 -18z"/>
<path d="M531 944 c-11 -8 -21 -23 -21 -33 0 -10 -7 -24 -15 -31 -12 -10 -13
-15 -4 -21 7 -4 14 -27 15 -51 2 -72 4 -78 14 -78 6 0 10 28 10 65 0 58 2 65
20 65 11 0 20 5 20 10 0 6 -9 10 -21 10 -32 0 -22 52 11 60 20 5 21 7 9 12 -9
4 -26 0 -38 -8z"/>
<path d="M190 943 c-31 -11 -70 -57 -76 -89 -11 -58 43 -124 101 -124 58 0
112 66 101 124 -11 56 -82 106 -126 89z m78 -41 c20 -20 28 -83 13 -111 -15
-28 -72 -45 -103 -31 -24 12 -30 29 -31 89 -1 60 78 96 121 53z"/>
<path d="M620 940 c0 -5 5 -10 10 -10 6 0 10 5 10 10 0 6 -4 10 -10 10 -5 0
-10 -4 -10 -10z"/>
<path d="M1040 940 c0 -5 16 -10 35 -10 l35 0 0 -100 c0 -82 3 -100 15 -100
12 0 15 18 15 100 l0 100 35 0 c19 0 35 5 35 10 0 6 -35 10 -85 10 -50 0 -85
-4 -85 -10z"/>
<path d="M1740 840 c0 -89 3 -110 14 -110 9 0 16 12 18 33 5 48 39 49 68 2 12
-20 25 -34 27 -31 3 3 -4 18 -16 34 -25 36 -27 68 -4 96 9 12 0 4 -21 -16 -20
-21 -41 -38 -46 -38 -6 0 -10 31 -10 70 0 56 -3 70 -15 70 -12 0 -15 -19 -15
-110z"/>
<path d="M737 874 c-25 -13 -47 -49 -47 -74 0 -5 12 -22 26 -39 28 -34 82 -43
103 -17 10 12 6 13 -28 9 -26 -4 -46 -1 -56 7 -20 16 -19 74 1 94 17 18 60 21
69 6 4 -6 11 -7 17 -4 6 4 1 12 -13 20 -30 17 -38 17 -72 -2z"/>
<path d="M934 880 c-28 -11 -54 -48 -54 -78 0 -55 81 -92 126 -56 18 15 18 15
-3 5 -47 -23 -93 -8 -93 31 0 15 9 18 65 18 73 0 81 11 43 54 -27 29 -55 38
-84 26z m47 -20 c34 -19 23 -40 -21 -40 -43 0 -55 20 -22 39 21 13 20 13 43 1z"/>
<path d="M1595 879 c-31 -18 -45 -40 -45 -74 0 -61 77 -97 126 -60 17 13 15
14 -30 8 -55 -7 -76 9 -76 57 0 41 31 64 77 55 26 -4 35 -3 28 4 -17 16 -59
22 -80 10z"/>
<path d="M620 805 c0 -43 4 -75 10 -75 6 0 10 32 10 75 0 43 -4 75 -10 75 -6
0 -10 -32 -10 -75z"/>
<path d="M1220 805 c0 -60 3 -75 15 -75 12 0 15 13 15 59 0 57 1 59 32 70 17
6 29 13 26 16 -3 3 -18 0 -33 -7 -23 -10 -29 -10 -33 0 -11 34 -22 4 -22 -63z"/>
<path d="M1350 824 c0 -30 5 -64 10 -75 11 -20 45 -25 70 -9 11 7 8 10 -16 10
-37 0 -44 12 -44 81 0 27 -4 49 -10 49 -5 0 -10 -25 -10 -56z"/>
<path d="M1470 834 c0 -25 -5 -54 -10 -65 -8 -15 -7 -19 4 -19 8 0 16 -6 19
-12 9 -26 12 -1 9 70 -4 78 -22 101 -22 26z"/>
<path d="M136 632 c-9 -14 12 -35 28 -29 23 9 20 37 -3 37 -11 0 -22 -4 -25
-8z"/>
<path d="M270 621 c0 -15 6 -21 21 -21 14 0 19 5 17 17 -5 26 -38 29 -38 4z"/>
<path d="M395 630 c-4 -7 -3 -16 3 -22 14 -14 45 -2 40 15 -6 16 -34 21 -43 7z"/>
<path d="M520 620 c0 -13 7 -20 20 -20 13 0 20 7 20 20 0 13 -7 20 -20 20 -13
0 -20 -7 -20 -20z"/>
<path d="M655 630 c-4 -7 -3 -16 3 -22 14 -14 45 -2 40 15 -6 16 -34 21 -43 7z"/>
<path d="M780 620 c0 -13 7 -20 20 -20 13 0 20 7 20 20 0 13 -7 20 -20 20 -13
0 -20 -7 -20 -20z"/>
<path d="M915 630 c-4 -7 -3 -16 3 -22 14 -14 45 -2 40 15 -6 16 -34 21 -43 7z"/>
<path d="M1040 620 c0 -13 7 -20 20 -20 13 0 20 7 20 20 0 13 -7 20 -20 20
-13 0 -20 -7 -20 -20z"/>
<path d="M1181 627 c-9 -12 -8 -16 3 -20 19 -7 32 11 19 24 -6 6 -14 5 -22 -4z"/>
<path d="M1300 620 c0 -13 7 -20 20 -20 13 0 20 7 20 20 0 13 -7 20 -20 20
-13 0 -20 -7 -20 -20z"/>
<path d="M1425 630 c-4 -7 -3 -16 3 -22 14 -14 45 -2 40 15 -6 16 -34 21 -43
7z"/>
<path d="M1557 634 c-16 -16 -6 -35 16 -32 12 2 22 10 22 18 0 16 -26 25 -38
14z"/>
<path d="M1685 630 c-4 -7 -3 -16 3 -22 14 -14 45 -2 40 15 -6 16 -34 21 -43
7z"/>
<path d="M1817 633 c-14 -13 -6 -33 13 -33 13 0 20 7 20 20 0 19 -20 27 -33
13z"/>
</g>
</svg>
