<?xml version="1.0" standalone="no"?>
<!DOCTYPE svg PUBLIC "-//W3C//DTD SVG 20010904//EN"
 "http://www.w3.org/TR/2001/REC-SVG-20010904/DTD/svg10.dtd">
<svg version="1.0" xmlns="http://www.w3.org/2000/svg"
 width="1200.000000pt" height="1200.000000pt" viewBox="0 0 1200.000000 1200.000000"
 preserveAspectRatio="xMidYMid meet">

<g transform="translate(0.000000,1200.000000) scale(0.100000,-0.100000)"
fill="#000000" stroke="none">
<path d="M0 6000 l0 -6000 6000 0 6000 0 0 6000 0 6000 -6000 0 -6000 0 0
-6000z m6608 2919 c334 -210 1377 -866 2317 -1457 941 -592 1845 -1160 2010
-1264 165 -104 300 -193 300 -198 0 -8 -846 -542 -4203 -2651 l-1032 -649
-603 378 c-331 208 -1356 853 -2277 1432 -921 579 -1828 1149 -2015 1267 -187
118 -340 218 -340 223 0 5 785 503 1745 1106 960 604 2137 1344 2615 1645 479
301 871 548 873 548 1 1 276 -171 610 -380z"/>
<path d="M5635 8894 c-750 -472 -3287 -2067 -3927 -2469 -368 -231 -668 -422
-668 -425 0 -3 222 -144 493 -314 270 -171 1293 -813 2272 -1429 979 -615
1873 -1177 1987 -1249 133 -84 211 -127 220 -122 37 22 3782 2375 4810 3022
76 48 138 89 138 92 0 6 -4929 3107 -4954 3116 -6 2 -173 -98 -371 -222z
m-1876 -2484 c57 -132 106 -238 110 -236 4 3 54 108 111 235 l105 229 35 5
c19 2 90 5 158 6 l122 2 0 -50 0 -49 -50 -17 -50 -17 2 -346 3 -346 48 -15 47
-15 0 -48 0 -48 -191 0 -190 0 3 48 c3 47 3 47 51 61 l47 15 -1 275 0 276
-106 -210 c-58 -115 -107 -212 -109 -214 -3 -3 -30 -7 -62 -9 l-58 -4 -99 212
c-55 116 -103 214 -107 216 -5 3 -7 -117 -6 -267 l3 -273 48 -15 47 -15 0 -48
0 -48 -175 0 -175 0 0 48 0 48 48 15 47 15 3 346 2 347 -47 13 c-48 13 -48 14
-51 60 l-3 47 38 4 c21 2 97 4 168 5 l131 2 103 -240z m4741 105 l0 -95 95 0
95 0 0 -60 c0 -50 -3 -60 -17 -61 -10 0 -52 -2 -93 -2 l-75 -2 -3 -188 c-1
-103 1 -202 6 -219 4 -17 20 -40 34 -51 23 -17 32 -18 71 -9 24 7 51 14 59 17
10 4 18 -6 27 -36 7 -22 15 -47 17 -54 6 -15 -79 -51 -155 -65 -66 -12 -122
-4 -163 24 -77 52 -88 102 -88 382 l0 202 -32 0 c-70 -1 -68 -2 -68 52 0 33 4
50 13 50 6 0 29 5 50 11 l37 10 0 79 0 78 78 15 c122 24 112 31 112 -78z
m-3472 -100 c20 -9 50 -26 67 -39 67 -51 113 -192 99 -302 l-6 -54 -225 0
-225 0 7 -37 c10 -52 41 -110 70 -129 70 -46 180 -34 306 34 4 1 21 -20 38
-47 l30 -50 -44 -27 c-109 -63 -238 -92 -338 -74 -75 14 -121 37 -169 85 -127
128 -127 411 0 556 37 42 115 87 174 99 56 12 170 4 216 -15z m2069 10 c135
-40 215 -223 185 -425 -6 -45 -20 -100 -31 -125 -29 -66 -92 -128 -164 -161
-55 -25 -73 -28 -164 -28 l-103 1 0 -88 0 -87 50 -12 50 -12 0 -49 0 -49 -190
0 -190 0 0 49 c0 49 0 49 43 64 l42 14 0 389 0 388 -40 12 c-39 11 -40 11 -43
62 l-3 52 78 0 c43 0 95 3 115 6 27 5 39 3 42 -7 2 -8 8 -29 12 -47 l9 -33 35
27 c55 42 131 71 191 73 14 1 48 -6 76 -14z m831 -10 c20 -9 50 -26 67 -39 67
-51 113 -192 99 -302 l-6 -54 -225 0 -225 0 7 -37 c10 -52 41 -110 70 -129 70
-46 180 -34 306 34 4 1 21 -20 38 -47 l30 -50 -44 -27 c-109 -63 -238 -92
-338 -74 -75 14 -121 37 -169 85 -127 128 -127 411 0 556 37 42 115 87 174 99
56 12 170 4 216 -15z m-2338 -229 c0 -134 3 -257 6 -275 4 -17 18 -42 33 -57
23 -23 32 -26 77 -22 31 3 69 15 98 32 l46 27 -2 201 -3 201 -42 15 c-43 14
-43 14 -43 63 l0 49 103 0 c56 0 119 3 140 6 l37 7 0 -305 0 -305 45 -13 45
-13 0 -48 0 -49 -37 0 c-21 0 -75 -3 -120 -6 l-82 -7 -6 39 c-11 67 -12 67
-47 41 -110 -82 -234 -104 -328 -57 -91 46 -103 86 -110 359 l-5 224 -43 15
-43 14 3 47 3 46 130 5 c72 3 133 7 138 8 4 1 7 -108 7 -242z m-3568 -58 c45
-25 78 -80 78 -128 0 -74 -76 -150 -149 -150 -51 0 -108 35 -131 80 -39 76
-16 156 56 197 50 29 96 29 146 1z m8096 3 c43 -22 82 -84 82 -130 0 -75 -75
-151 -149 -151 -51 0 -108 35 -131 80 -39 76 -16 156 56 197 48 28 93 29 142
4z m-4251 -1424 c89 -94 100 -288 21 -363 -90 -87 -228 52 -228 230 0 77 16
121 57 156 50 44 92 38 150 -23z m418 22 c43 -38 59 -91 52 -181 -12 -172
-140 -286 -227 -203 -75 72 -66 265 18 357 60 67 103 74 157 27z m-669 -380
c156 -75 214 -316 85 -353 -46 -13 -105 8 -158 57 -59 54 -92 113 -100 176
-14 120 63 174 173 120z m895 4 c37 -22 53 -62 47 -122 -14 -146 -178 -285
-274 -233 -35 19 -57 78 -51 137 7 65 34 119 84 167 67 65 139 84 194 51z
m-452 -168 c35 -17 79 -69 86 -98 5 -22 13 -65 14 -79 1 -4 32 -42 71 -84 46
-50 72 -88 76 -110 18 -96 -81 -189 -184 -172 -15 3 -48 11 -74 19 -40 11 -56
11 -95 0 -27 -8 -60 -16 -75 -19 -104 -17 -202 76 -183 175 4 25 25 54 71 101
61 62 72 82 88 163 18 87 129 144 205 104z"/>
<path d="M4818 6284 c-28 -15 -60 -66 -72 -116 l-6 -28 130 0 130 0 0 25 c0
44 -31 105 -61 120 -36 19 -86 18 -121 -1z"/>
<path d="M6872 6274 l-52 -26 0 -208 c0 -234 -5 -220 81 -220 134 0 197 91
187 268 -6 96 -34 164 -80 192 -44 26 -74 25 -136 -6z"/>
<path d="M7718 6284 c-28 -15 -60 -66 -72 -116 l-6 -28 130 0 130 0 0 25 c0
44 -31 105 -61 120 -36 19 -86 18 -121 -1z"/>
</g>
</svg>
