<?xml version="1.0" standalone="no"?>
<!DOCTYPE svg PUBLIC "-//W3C//DTD SVG 20010904//EN"
 "http://www.w3.org/TR/2001/REC-SVG-20010904/DTD/svg10.dtd">
<svg version="1.0" xmlns="http://www.w3.org/2000/svg"
 width="658.000000pt" height="439.000000pt" viewBox="0 0 658.000000 439.000000"
 preserveAspectRatio="xMidYMid meet">

<g transform="translate(0.000000,439.000000) scale(0.100000,-0.100000)"
fill="#000000" stroke="none">
<path d="M3130 3435 c-558 -186 -605 -203 -605 -224 0 -19 38 -41 260 -155
l259 -133 137 -263 c75 -145 144 -267 152 -271 9 -6 19 -4 26 5 11 13 411
1200 411 1218 0 34 -56 18 -640 -177z m220 -180 c-151 -151 -278 -275 -281
-275 -4 0 -105 50 -225 112 l-218 112 484 162 c267 89 492 163 500 163 8 1
-109 -123 -260 -274z m155 -257 c-87 -260 -161 -479 -165 -487 -7 -13 -45 56
-190 337 l-43 84 273 273 c151 151 276 272 278 270 2 -2 -67 -217 -153 -477z"/>
<path d="M1265 2136 c-63 -28 -99 -91 -111 -194 l-7 -62 -33 0 -34 0 0 -55 0
-55 35 0 35 0 0 -220 0 -220 75 0 75 0 0 220 0 220 75 0 75 0 0 55 0 55 -75 0
-75 0 0 34 c0 94 54 137 135 106 28 -11 34 -2 49 67 7 30 5 33 -30 48 -44 18
-148 19 -189 1z"/>
<path d="M1666 2127 c-53 -29 -87 -95 -93 -182 l-6 -65 -38 0 -39 0 0 -55 0
-55 40 0 40 0 0 -220 0 -220 75 0 75 0 0 220 0 220 70 0 70 0 0 55 0 55 -71 0
-71 0 4 57 c4 44 10 61 29 76 23 19 67 20 111 2 16 -6 28 20 40 89 8 46 -166
63 -236 23z"/>
<path d="M1950 2070 l0 -70 75 0 75 0 0 70 0 70 -75 0 -75 0 0 -70z"/>
<path d="M5760 1735 l0 -405 75 0 75 0 0 88 0 88 39 38 39 38 84 -126 83 -125
79 -1 78 0 -18 28 c-10 15 -60 87 -111 161 -51 73 -93 138 -93 143 0 5 47 62
104 126 l104 117 -76 3 -77 3 -40 -43 c-22 -24 -75 -82 -117 -128 l-77 -85 -1
243 0 242 -75 0 -75 0 0 -405z"/>
<path d="M550 2120 c-158 -33 -283 -170 -311 -339 -27 -170 62 -343 217 -422
63 -32 74 -34 163 -34 83 0 104 4 153 27 163 76 261 261 229 434 -15 85 -60
174 -115 228 -85 86 -223 129 -336 106z m147 -145 c88 -37 136 -102 152 -204
26 -168 -78 -312 -225 -312 -146 0 -244 122 -232 290 6 75 30 131 80 178 63
61 150 79 225 48z"/>
<path d="M3370 2055 l0 -65 125 0 125 0 0 -330 0 -330 75 0 75 0 2 328 3 327
128 3 127 3 0 64 0 65 -330 0 -330 0 0 -65z"/>
<path d="M2411 1909 c-72 -22 -140 -81 -179 -154 -23 -43 -27 -62 -26 -135 0
-100 20 -153 80 -214 113 -116 326 -121 439 -11 25 25 45 50 45 58 0 7 -29 22
-67 35 l-66 21 -33 -28 c-120 -106 -288 24 -244 188 31 118 167 164 247 85
l24 -24 70 20 c38 12 69 24 69 29 0 20 -72 89 -116 111 -55 27 -183 37 -243
19z"/>
<path d="M3041 1909 c-162 -47 -253 -237 -191 -401 28 -76 71 -122 145 -159
56 -27 75 -32 142 -31 45 0 96 7 121 16 54 19 118 69 137 106 l14 27 -60 17
-60 16 -30 -30 c-35 -34 -98 -54 -145 -45 -39 7 -89 46 -109 86 -32 60 -37 59
210 59 l225 0 1 23 c7 148 -60 260 -184 306 -62 23 -156 27 -216 10z m184
-123 c30 -19 51 -51 60 -88 l7 -28 -155 0 -156 0 9 30 c29 103 145 145 235 86z"/>
<path d="M4242 1899 c-23 -12 -58 -40 -77 -62 l-35 -41 0 57 0 57 -70 0 -70 0
0 -290 0 -290 75 0 75 0 0 181 0 182 34 31 c34 33 93 56 140 56 26 0 26 1 26
70 0 70 0 70 -27 70 -16 0 -47 -10 -71 -21z"/>
<path d="M5278 1901 c-73 -29 -123 -75 -157 -143 -26 -52 -31 -72 -31 -137 0
-161 96 -275 254 -301 67 -11 148 1 203 29 38 19 113 92 113 109 0 5 -32 18
-70 29 l-70 21 -30 -28 c-35 -33 -77 -45 -125 -36 -101 19 -155 154 -106 263
42 91 160 116 231 48 l28 -27 72 24 71 23 -29 40 c-16 22 -53 53 -83 70 -71
38 -197 46 -271 16z"/>
<path d="M1950 1620 l0 -290 75 0 75 0 0 290 0 290 -75 0 -75 0 0 -290z"/>
<path d="M4422 1682 c3 -220 4 -229 28 -276 33 -65 80 -90 165 -88 74 1 149
30 191 73 35 37 44 37 44 0 0 -46 41 -73 104 -69 l51 3 3 59 c3 50 0 61 -17
73 -20 14 -21 24 -21 234 l0 219 -75 0 -75 0 0 -186 0 -187 -43 -42 c-49 -50
-99 -65 -148 -44 -52 21 -59 54 -59 269 l0 190 -76 0 -75 0 3 -228z"/>
<path d="M353 1065 c-29 -21 -38 -66 -19 -103 37 -72 139 -52 152 30 5 30 2
41 -19 62 -30 30 -80 35 -114 11z"/>
<path d="M812 1053 c-22 -9 -44 -63 -37 -94 14 -61 105 -82 144 -33 12 15 21
35 21 46 0 27 -26 74 -45 82 -19 7 -64 7 -83 -1z"/>
<path d="M1225 1035 c-50 -49 -15 -135 55 -135 42 0 65 14 79 48 14 33 2 77
-27 98 -28 22 -80 17 -107 -11z"/>
<path d="M1655 1035 c-51 -50 -17 -135 54 -135 49 0 81 32 81 82 0 70 -86 103
-135 53z"/>
<path d="M2105 1035 c-52 -51 -17 -135 56 -135 52 0 79 27 79 79 0 73 -84 108
-135 56z"/>
<path d="M2536 1039 c-33 -26 -36 -84 -6 -117 46 -49 140 -12 140 54 0 71 -77
108 -134 63z"/>
<path d="M2986 1039 c-58 -45 -21 -139 55 -139 72 0 106 84 54 135 -30 31 -73
32 -109 4z"/>
<path d="M3413 1038 c-30 -34 -36 -63 -19 -96 17 -33 34 -42 77 -42 40 0 79
40 79 80 0 69 -92 107 -137 58z"/>
<path d="M3852 1053 c-17 -6 -42 -57 -42 -83 0 -33 44 -70 82 -70 84 0 116 96
49 147 -16 12 -65 16 -89 6z"/>
<path d="M4302 1053 c-16 -6 -42 -56 -42 -81 0 -11 9 -31 21 -46 39 -49 130
-28 144 33 7 33 -15 85 -40 95 -19 7 -64 7 -83 -1z"/>
<path d="M4715 1035 c-50 -49 -17 -135 51 -135 47 0 70 14 83 50 28 82 -73
147 -134 85z"/>
<path d="M5145 1035 c-53 -52 -18 -135 56 -135 45 0 79 34 79 79 0 42 -38 81
-80 81 -19 0 -40 -9 -55 -25z"/>
<path d="M5595 1035 c-53 -52 -18 -135 56 -135 45 0 79 34 79 79 0 42 -38 81
-80 81 -19 0 -40 -9 -55 -25z"/>
<path d="M6023 1038 c-29 -32 -34 -53 -22 -88 13 -36 36 -50 83 -50 68 0 101
86 51 135 -32 33 -84 34 -112 3z"/>
</g>
</svg>
