<svg id="Capa_1" enable-background="new 0 0 512 512" height="512" viewBox="0 0 512 512" width="512" xmlns="http://www.w3.org/2000/svg"><g><g><g><g><g><path d="m193.5 413.873h179.914v89.589h-179.914z" fill="#9bb6f1"/></g><g><path d="m193.5 8.474-7.664 135.026 7.664 225.364h179.914v-360.39z" fill="#6de89a"/></g><g><path d="m58.496 8.474h89.957v240.059h-89.957z" fill="#9bb6f1"/></g><g><path d="m80.708 226.047v-217.573h-22.212v240.059h89.957v-22.486z" fill="#6990eb"/></g><g><path d="m58.496 293.574h89.957v209.887h-89.957z" fill="#6de89a"/></g><g><path d="m80.708 480.975v-187.401h-22.212v209.888h89.957v-22.487z" fill="#2ce079"/></g><g><path d="m215.712 481.976v-67.102h-22.212v89.589h179.914v-22.487z" fill="#6990eb"/></g><g><path d="m215.712 346.397v-337.923h-22.212v360.409h179.931v-22.486z" fill="#2ce079"/></g><g><path d="m373.414 368.826h-179.914v-360.352h-45.047v240.059h-90.039v45.047h90.039v209.882h45.047v-89.589h179.914z" fill="#fbf2e2"/></g><g><g><path d="m148.453 8.474h22.468v247.494h-22.468z" fill="#f7e0ba"/></g><g><path d="m170.921 481.504v-209.882h-90.039v-23.089h-22.468v45.047h90.039v209.882h45.047v-21.958z" fill="#f7e0ba"/></g><g><path d="m185.836 391.916h187.579v21.958h-187.579z" fill="#f7e0ba"/></g></g><g><path d="m455.914 158.996c-2.329 78.855-82.5 150.004-82.5 150.004s-82.5-73.191-82.5-150.004c0-45.563 36.937-82.5 82.5-82.5s83.845 36.956 82.5 82.5z" fill="#e08ea2"/></g><g><path d="m312.581 151.338c0-31.852 18.062-59.468 44.492-73.217-37.735 7.583-66.158 40.907-66.158 80.875 0 76.813 82.5 150.003 82.5 150.003s5.901-5.24 14.539-14.437c-20.022-19.82-75.373-80.302-75.373-143.224z" fill="#d15573"/></g><g><circle cx="373.414" cy="158.996" fill="#d3e0ef" r="52.528"/></g><g><path d="m389.691 196.248c-29.01 0-52.528-23.518-52.528-52.528 0-11.068 3.431-21.33 9.276-29.799-15.306 9.18-25.553 25.928-25.553 45.074 0 29.01 23.518 52.528 52.528 52.528 17.942 0 33.776-9.002 43.251-22.729-7.885 4.729-17.11 7.454-26.974 7.454z" fill="#9bb6f1"/></g><g><path d="m343.442 143.5h15v15h-15z" fill="#fff"/></g><g><path d="m80.804 31h15v15h-15z" fill="#fff"/></g><g><path d="m80.804 61h15v15h-15z" fill="#fff"/></g></g></g></g><g><path d="m305.927 497.005h14.995v14.995h-14.995z"/><path d="m428.424 88.424-9.425 11.663c17.177 13.879 27.029 34.488 27.029 56.543 0 67.947-55.681 126.018-72.655 142.136-16.982-16.099-72.644-74.072-72.644-142.136 0-40.059 32.59-72.649 72.649-72.649 11.853 0 23.612 2.916 34.005 8.432l7.029-13.246c-10.35-5.493-21.817-8.844-33.537-9.852v-69.315h-329.9v512h239.956v-14.995h-89.915v-75.748h164.864v75.748h-29.963v14.995h44.958v-199.709c6.21-5.637 22.348-21.105 38.639-43.49 27.155-37.315 41.509-76.103 41.509-112.17.001-26.607-11.881-51.468-32.599-68.207zm-287.436-73.429v225.976h-75.016v-225.976zm-75.016 286h75.016v196.01h-75.016zm120.049 105.266v90.743h-30.037v-211.005h-90.012v-30.032h90.012v-240.972h30.037v120.975h14.995v-120.975h164.864v54.315c-44.83 3.817-80.147 41.519-80.147 87.321 0 36.067 14.353 74.855 41.509 112.17 16.29 22.385 32.428 37.853 38.638 43.49v48.974h-164.864v-210.3h-14.995v225.296h179.86v30z"/><path d="m313.369 158.958c0 33.09 26.92 60.01 60.009 60.01s60.01-26.921 60.01-60.01-26.921-60.01-60.01-60.01-60.009 26.921-60.009 60.01zm105.024 0c0 24.821-20.193 45.015-45.015 45.015-24.821 0-45.014-20.194-45.014-45.015s20.193-45.014 45.014-45.014c24.822 0 45.015 20.193 45.015 45.014z"/></g></g></svg>