<?xml version="1.0" standalone="no"?>
<!DOCTYPE svg PUBLIC "-//W3C//DTD SVG 20010904//EN"
 "http://www.w3.org/TR/2001/REC-SVG-20010904/DTD/svg10.dtd">
<svg version="1.0" xmlns="http://www.w3.org/2000/svg"
 width="1200.000000pt" height="1200.000000pt" viewBox="0 0 1200.000000 1200.000000"
 preserveAspectRatio="xMidYMid meet">

<g transform="translate(0.000000,1200.000000) scale(0.100000,-0.100000)"
fill="#000000" stroke="none">
<path d="M0 6000 l0 -6000 6000 0 6000 0 0 6000 0 6000 -6000 0 -6000 0 0
-6000z m7153 2576 c634 -398 1735 -1090 2447 -1538 712 -448 1373 -863 1468
-922 94 -60 172 -112 172 -116 0 -4 -489 -315 -1088 -690 -598 -376 -1431
-900 -1852 -1165 -421 -265 -1110 -698 -1532 -964 l-768 -482 -722 454 c-398
250 -1324 832 -2058 1294 -734 461 -1588 998 -1897 1193 -310 194 -563 356
-563 360 0 4 199 132 443 285 478 300 4013 2523 4497 2828 162 102 296 186
298 186 2 1 522 -325 1155 -723z"/>
<path d="M5715 8943 c-939 -590 -3294 -2071 -3927 -2468 -412 -259 -748 -472
-748 -475 0 -3 179 -117 398 -254 218 -138 1153 -725 2077 -1306 924 -581
1861 -1170 2083 -1309 l402 -253 788 495 c433 272 1431 899 2217 1394 787 494
1548 973 1692 1064 145 90 263 166 263 169 0 3 -100 68 -223 144 -122 77 -744
468 -1382 869 -2138 1345 -3340 2100 -3350 2103 -5 2 -136 -76 -290 -173z
m-1956 -2533 c57 -132 106 -238 110 -236 3 2 53 108 111 235 68 150 111 232
122 234 10 3 80 6 158 6 l140 2 0 -50 0 -49 -50 -17 -50 -17 2 -346 3 -346 48
-15 47 -15 0 -48 0 -48 -190 0 -190 0 0 49 0 49 50 13 50 13 -1 275 0 276
-105 -210 c-58 -115 -111 -213 -117 -217 -7 -4 -35 -8 -63 -8 l-51 0 -97 208
c-54 114 -102 211 -107 217 -6 6 -8 -96 -7 -265 l3 -274 48 -14 47 -13 0 -50
0 -49 -175 0 -175 0 0 48 0 48 48 15 47 15 3 346 2 346 -50 13 -50 13 0 47 c0
37 4 48 18 52 9 2 85 5 168 6 l150 2 103 -241z m4743 108 l3 -93 93 -3 93 -3
-3 -62 -3 -62 -93 -3 -94 -3 4 -208 c3 -221 6 -233 54 -251 20 -8 58 -3 110
14 18 5 23 0 33 -35 7 -23 15 -47 17 -54 6 -16 -72 -50 -153 -65 -126 -25
-218 28 -242 139 -6 29 -11 144 -11 256 l0 205 -50 0 -50 0 0 54 0 54 50 12
50 12 0 79 0 78 38 7 c20 3 53 10 72 14 81 18 79 21 82 -82z m-3523 -89 c73
-15 135 -59 170 -120 36 -64 56 -161 46 -234 l-6 -55 -225 0 -225 0 7 -37 c8
-49 49 -119 77 -135 61 -33 163 -26 249 18 26 13 49 24 52 24 2 0 18 -22 35
-49 34 -56 34 -55 -44 -93 -91 -46 -155 -62 -245 -62 -70 0 -95 4 -141 26
-103 47 -162 131 -182 259 -13 86 1 204 33 272 70 148 229 223 399 186z m2118
-4 c129 -38 205 -197 190 -395 -9 -112 -39 -184 -106 -251 -75 -74 -131 -94
-263 -93 l-98 1 0 -86 0 -87 50 -13 50 -13 0 -49 0 -49 -190 0 -190 0 0 49 c0
49 0 49 43 64 l42 14 0 388 0 388 -40 11 c-40 11 -40 12 -43 64 l-3 52 85 2
c48 1 100 2 118 2 30 1 33 -2 41 -41 l8 -42 55 36 c54 36 125 61 175 62 14 1
48 -6 76 -14z m782 4 c73 -15 135 -59 170 -120 36 -64 56 -161 46 -234 l-6
-55 -225 0 -225 0 7 -37 c8 -49 49 -119 77 -135 61 -33 163 -26 249 18 26 13
49 24 52 24 2 0 18 -22 35 -49 34 -56 34 -55 -44 -93 -91 -46 -155 -62 -245
-62 -70 0 -95 4 -141 26 -103 47 -162 131 -182 259 -13 86 1 204 33 272 70
148 229 223 399 186z m-2287 -266 c3 -291 5 -301 60 -324 39 -16 99 -6 153 26
l45 26 -2 202 -3 201 -40 12 c-39 11 -40 11 -43 62 l-3 52 94 0 c52 0 115 3
141 6 l46 7 0 -305 0 -306 45 -11 45 -11 0 -49 0 -48 -92 -7 c-149 -10 -145
-11 -153 27 -14 71 -13 70 -49 42 -46 -35 -133 -72 -187 -80 -89 -13 -176 29
-219 105 -24 43 -25 53 -30 274 l-5 229 -42 15 c-43 14 -43 14 -43 63 l0 48
123 4 c67 1 130 4 139 5 15 2 17 -21 20 -265z m-3572 -33 c103 -52 105 -199 4
-258 -106 -62 -235 23 -221 146 6 53 30 88 77 113 45 24 91 24 140 -1z m8100
1 c106 -56 102 -215 -6 -266 -106 -50 -224 36 -211 153 12 105 123 163 217
113z m-4260 -1418 c56 -56 80 -122 80 -220 0 -270 -265 -209 -278 64 -5 88 9
133 54 173 52 45 86 41 144 -17z m424 17 c45 -40 59 -85 54 -173 -13 -273
-278 -334 -278 -64 0 98 24 164 80 220 58 58 92 62 144 17z m-669 -379 c156
-73 216 -318 86 -355 -75 -21 -196 63 -241 166 -31 72 -25 151 14 185 33 28
85 30 141 4z m896 2 c37 -22 53 -62 47 -122 -14 -141 -165 -278 -262 -237 -95
40 -83 209 21 307 72 69 136 86 194 52z m-440 -176 c46 -31 75 -78 84 -133 5
-39 17 -58 75 -120 76 -81 90 -118 70 -178 -13 -39 -68 -93 -105 -102 -31 -8
-85 -2 -147 16 -40 12 -55 12 -90 1 -66 -20 -123 -24 -162 -11 -68 22 -118
109 -102 176 4 14 36 55 71 91 62 63 69 76 89 164 3 14 15 38 27 54 52 66 129
83 190 42z"/>
<path d="M4818 6284 c-28 -15 -60 -66 -72 -116 l-6 -28 130 0 130 0 0 25 c0
44 -31 105 -61 120 -36 19 -86 18 -121 -1z"/>
<path d="M6908 6291 c-14 -5 -40 -17 -57 -27 l-31 -18 0 -207 c0 -234 -6 -219
88 -219 125 0 190 96 180 268 -9 154 -80 234 -180 203z"/>
<path d="M7718 6284 c-28 -15 -60 -66 -72 -116 l-6 -28 130 0 130 0 0 25 c0
44 -31 105 -61 120 -36 19 -86 18 -121 -1z"/>
</g>
</svg>
