<svg id="Layer_1" data-name="Layer 1" xmlns="http://www.w3.org/2000/svg" viewBox="0 0 512 512"><title>camera-glyph</title><path d="M490.67,106.67H365.18l-26.1-52.21A21.34,21.34,0,0,0,320,42.67H192a21.34,21.34,0,0,0-19.08,11.79l-26.1,52.21H21.33A21.33,21.33,0,0,0,0,128V448a21.33,21.33,0,0,0,21.33,21.33H490.67A21.33,21.33,0,0,0,512,448V128A21.33,21.33,0,0,0,490.67,106.67ZM256,384A106.67,106.67,0,1,1,362.67,277.33,106.79,106.79,0,0,1,256,384Zm64-106.67a64,64,0,1,1-64-64A64.07,64.07,0,0,1,320,277.33Z"/></svg>