<svg id="Capa_1" enable-background="new 0 0 512.062 512.062" height="512" viewBox="0 0 512.062 512.062" width="512" xmlns="http://www.w3.org/2000/svg"><g><path d="m512 256.03c0 78.28-35.135 148.354-90.495 195.312-18.406 15.613-83.198 6.216-83.198 6.216s-30.399 50.835-58.921 53.418c-7.702.698-15.503 1.054-23.387 1.054-141.385 0-256-114.615-256-256s114.615-256 256-256 256.001 114.615 256.001 256z" fill="#ff641a"/><path d="m164.553 424.349 87.633 87.633c9.183.184 18.261-.131 27.209-.918 28.497-2.507 58.913-53.506 58.913-53.506s64.721 9.334 83.113-6.316c59.624-50.737 95.934-128.1 90.012-212.086l-151.287-151.286" fill="#ef3800"/><path d="m383.753 378.274v-145.671c0-12.959-10.505-23.464-23.464-23.464-12.959 0-23.464 10.505-23.464 23.464v104.821l-154.945 57.118 80.47 84.487 17.036 31.926c53.947-4.886 103.057-26.503 142.108-59.628z" fill="#ffccbd"/><g><path d="m383.753 378.274v-145.671c0-12.959-10.505-23.464-23.464-23.464s-23.464 10.505-23.464 23.464v104.821l-74.502 26.391v115.186l.027.029 17.036 31.926c53.947-4.886 103.057-26.503 142.108-59.628z" fill="#ffbda9"/></g><path d="m204.078 222.682c-7.117 8.157-19.759 8.824-27.438 1.076 0 0-44.399-44.399-44.399-44.399-7.28-7.28-7.28-19.082 0-26.362 7.117-8.157 19.759-8.824 27.438-1.076 0 0 44.399 44.399 44.399 44.399 7.28 7.28 7.28 19.082 0 26.362z" fill="#ffccbd"/><g><path d="m387.867 276.88c-.005.013-.003.01 0 0z" fill="#ffccbd"/></g><path d="m164.553 87.87h195.592v336.479h-195.592z" fill="#5a5a5a"/><path d="m262.349 87.87v15.737 320.742h97.797v-273.129-63.35z" fill="#32393f"/><path d="m180.291 103.607h164.118v289.267h-164.118z" fill="#9dcfff"/><path d="m262.35 103.607h82.059v289.267h-82.059z" fill="#72bbff"/><circle cx="262.35" cy="408.611" fill="#8b9aa6" r="7.806"/><g><path d="m262.349 400.805v15.613c4.311 0 7.806-3.495 7.806-7.806s-3.494-7.807-7.806-7.807z" fill="#697c84"/></g><g><path d="m315.182 347.79h-105.665v-105.665h42.486l10.346 7.585 10.346-7.585h42.487z" fill="#ffd300"/></g><path d="m274.153 242.125h-1.458l-10.346 7.585v24.571 41.268 32.241h52.833v-81.181-24.484z" fill="#ffb600"/><g><path d="m292.24 159.761c0 16.508-29.891 61.495-29.891 61.495s-29.891-44.987-29.891-61.495 13.383-29.891 29.891-29.891 29.891 13.383 29.891 29.891z" fill="#ff641a"/><circle cx="262.35" cy="161.475" fill="#fff" r="11.772"/></g><path d="m247.35 242.125h29.945v32.156h-29.945z" fill="#fff"/><path d="m224.959 310.55h21.928v21.928h-21.928z" fill="#ffb600"/><g fill="#ffccbd"><path d="m188.137 368.859c-7.116 8.157-19.759 8.823-27.438 1.076-10.587-12.472-40.418-30.229-22.517-48.879 7.115-8.158 19.759-8.823 27.438-1.076 10.587 12.472 40.417 30.23 22.517 48.879z"/><path d="m188.137 316.205c-7.116 8.157-19.759 8.823-27.438 1.076-10.587-12.472-40.418-30.229-22.517-48.879 7.115-8.158 19.759-8.823 27.438-1.076 10.587 12.472 40.417 30.229 22.517 48.879z"/><path d="m188.137 263.553c-7.116 8.157-19.759 8.823-27.438 1.076-10.587-12.472-40.418-30.229-22.517-48.879 7.115-8.158 19.759-8.823 27.438-1.076 10.587 12.473 40.417 30.23 22.517 48.879z"/></g><path d="m262.349 129.871v19.832c6.502 0 11.772 5.271 11.772 11.772s-5.271 11.772-11.772 11.772v48.009s29.891-44.987 29.891-61.495-13.382-29.89-29.891-29.89z" fill="#ef3800"/><path d="m274.122 161.475c0-6.502-5.271-11.772-11.772-11.772v23.544c6.501 0 11.772-5.27 11.772-11.772z" fill="#fff"/><path d="m262.349 242.125h14.945v32.156h-14.945z" fill="#e3eaee"/></g></svg>