<svg id="Capa_1" enable-background="new 0 0 512 512" height="512" viewBox="0 0 512 512" width="512" xmlns="http://www.w3.org/2000/svg" xmlns:xlink="http://www.w3.org/1999/xlink"><linearGradient id="lg1"><stop offset="0" stop-color="#f4fbff"/><stop offset=".5145" stop-color="#cbe2ff"/><stop offset="1" stop-color="#bed8fb"/></linearGradient><radialGradient id="SVGID_1_" cx="373.437" cy="300.866" gradientTransform="matrix(.824 .566 -.906 1.319 338.147 -307.484)" gradientUnits="userSpaceOnUse" r="104.082" xlink:href="#lg1"/><radialGradient id="SVGID_2_" cx="302.97" cy="361.884" gradientUnits="userSpaceOnUse" r="78.987" xlink:href="#lg1"/><radialGradient id="SVGID_3_" cx="50.259" cy="277.107" gradientUnits="userSpaceOnUse" r="93.516" xlink:href="#lg1"/><linearGradient id="lg2"><stop offset=".015" stop-color="#bed8fb"/><stop offset=".4022" stop-color="#93bffb"/><stop offset=".5609" stop-color="#80b4fb"/><stop offset=".8268" stop-color="#6faafa"/><stop offset="1" stop-color="#61a2f9"/></linearGradient><radialGradient id="SVGID_4_" cx="375.324" cy="186.049" gradientUnits="userSpaceOnUse" r="146.824" xlink:href="#lg2"/><linearGradient id="lg3"><stop offset=".015" stop-color="#bed8fb"/><stop offset=".4762" stop-color="#93bffb"/><stop offset=".6651" stop-color="#80b4fb"/><stop offset=".8679" stop-color="#6faafa"/><stop offset="1" stop-color="#61a2f9"/></linearGradient><radialGradient id="SVGID_5_" cx="356.403" cy="365.124" gradientUnits="userSpaceOnUse" r="78.295" xlink:href="#lg3"/><radialGradient id="SVGID_6_" cx="136.116" cy="20.078" gradientUnits="userSpaceOnUse" r="142.621" xlink:href="#lg1"/><radialGradient id="SVGID_7_" cx="27.31" cy="227.429" gradientTransform="matrix(1 0 0 1.429 0 -97.666)" gradientUnits="userSpaceOnUse" r="110.494" xlink:href="#lg2"/><radialGradient id="SVGID_8_" cx="41.35" cy="431.541" gradientUnits="userSpaceOnUse" r="183.799" xlink:href="#lg3"/><radialGradient id="SVGID_9_" cx="404.509" cy="290.607" gradientUnits="userSpaceOnUse" r="359.603"><stop offset="0" stop-color="#80b4fb"/><stop offset=".1461" stop-color="#7aaffb"/><stop offset=".3416" stop-color="#69a1fa"/><stop offset=".5158" stop-color="#5490f9"/><stop offset="1" stop-color="#407093"/></radialGradient><linearGradient id="lg4"><stop offset="0" stop-color="#e4989d"/><stop offset=".1925" stop-color="#e38d93"/><stop offset=".5311" stop-color="#df6f79"/><stop offset=".6532" stop-color="#dd636e"/><stop offset="1" stop-color="#da4a54"/></linearGradient><radialGradient id="SVGID_10_" cx="259.155" cy="258.203" gradientUnits="userSpaceOnUse" r="53.011" xlink:href="#lg4"/><linearGradient id="lg5"><stop offset="0" stop-color="#fbe2dd"/><stop offset=".5145" stop-color="#eab1b7"/><stop offset="1" stop-color="#e4989d"/></linearGradient><radialGradient id="SVGID_11_" cx="252.7" cy="143.909" gradientUnits="userSpaceOnUse" r="113.318" xlink:href="#lg5"/><radialGradient id="SVGID_12_" cx="239.03" cy="329.589" gradientUnits="userSpaceOnUse" r="56.994" xlink:href="#lg4"/><radialGradient id="SVGID_13_" cx="257.256" cy="297.693" gradientUnits="userSpaceOnUse" r="37.538" xlink:href="#lg5"/><radialGradient id="SVGID_14_" cx="416.076" cy="276.736" gradientTransform="matrix(-1 0 0 -1.004 832.151 554.461)" gradientUnits="userSpaceOnUse" r="306.049"><stop offset=".0988" stop-color="#dd636e"/><stop offset=".5649" stop-color="#d82e3d"/><stop offset=".6885" stop-color="#d32e3b"/><stop offset=".8402" stop-color="#c42f37"/><stop offset="1" stop-color="#ac3030"/></radialGradient><radialGradient id="SVGID_15_" cx="313.184" cy="3452.079" gradientTransform="matrix(.931 0 0 .112 -38.569 89.235)" gradientUnits="userSpaceOnUse" r="235.411"><stop offset="0" stop-color="#cbe2ff"/><stop offset=".1435" stop-color="#d6e8ff"/><stop offset=".4962" stop-color="#ecf4ff"/><stop offset=".888" stop-color="#fff"/></radialGradient><g><path d="m303.978 342.115 115.119-100.106h63.748l-105.469 109.757z" fill="url(#SVGID_1_)"/><path d="m224.705 398.153c41.886 0 81.187-16.55 110.141-45.417l93.398-7.051c-28.955 28.867-95.269 71.547-137.155 71.547z" fill="url(#SVGID_2_)"/><path d="m0 302.436 73.882-19.826h63.748l-68.815 36.252z" fill="url(#SVGID_3_)"/><path d="m223.548 85.865c70.546 0 132.566 47.513 150.823 115.543h63.747c-18.256-68.03-71.082-143.262-141.628-143.262z" fill="url(#SVGID_4_)"/><path d="m334.846 352.736-30.868-10.621h63.747l54.58 10.621z" fill="url(#SVGID_5_)"/><path d="m223.548 9.368c-74.736 0-143.936 35.346-187.738 95.216l85.187 21.105c43.802-59.87 91.563-116.32 166.298-116.32h-63.747z" fill="url(#SVGID_6_)"/><path d="m0 92.263 29.155 149.746h63.748v-74.873l-29.156-74.873z" fill="url(#SVGID_7_)"/><path d="m224.705 474.65c-105.093 0-197.495-70.817-224.705-172.214h63.747s119.612 172.213 224.705 172.213h-63.747z" fill="url(#SVGID_8_)"/><path d="m512 181.581-73.882 19.826c-18.256-68.03-80.277-115.543-150.823-115.543-41.886 0-81.187 16.55-110.141 45.417l30.869 10.621-115.12 100.107-29.156-149.746 35.81 12.321c43.802-59.87 113.002-95.216 187.738-95.216 105.093 0 197.495 70.817 224.705 172.213zm-223.548 293.069c74.736 0 143.936-35.346 187.738-95.216l35.81 12.321-29.155-149.746-115.12 100.106 30.869 10.621c-28.955 28.867-68.255 45.417-110.141 45.417-70.546 0-132.566-47.513-150.823-115.543l-73.882 19.826c27.209 101.397 119.612 172.214 224.704 172.214z" fill="url(#SVGID_9_)"/><g><path d="m270.847 280.516h26.896c-2.926 0-2.495-14.775-4.414-27.25l-45.148 6.481c1.028 11.752 10.869 20.769 22.666 20.769z" fill="url(#SVGID_10_)"/><path d="m297.743 145.673h-26.896c-17.55 0-31.33 15.038-29.801 32.522l7.135 81.552h42.163c-5.818-37.823-5.798-114.074 7.399-114.074z" fill="url(#SVGID_11_)"/><path d="m293.329 312.122-48.717 9.458c0 14.489 11.746 26.235 26.235 26.235h26.896c-7.244 0-4.414-22.575-4.414-35.693z" fill="url(#SVGID_12_)"/><path d="m297.743 295.345h-26.896c-14.489 0-26.235 11.746-26.235 26.235h42.265c0-13.118 3.622-26.235 10.866-26.235z" fill="url(#SVGID_13_)"/><path d="m297.743 280.516c-11.797 0-21.638-9.017-22.666-20.769l-7.135-81.552c-1.53-17.483 12.25-32.522 29.801-32.522 17.55 0 31.33 15.038 29.801 32.522l-7.135 81.552c-1.028 11.752-10.868 20.769-22.666 20.769zm0 14.829c-14.489 0-26.235 11.746-26.235 26.235s11.746 26.235 26.235 26.235 26.235-11.746 26.235-26.235c0-14.49-11.745-26.235-26.235-26.235z" fill="url(#SVGID_14_)"/></g><path d="m256 502.632c126.142 0 228.4-12.528 228.4-27.983h-456.8c0 15.455 102.258 27.983 228.4 27.983z" fill="url(#SVGID_15_)"/></g></svg>