<?xml version="1.0" standalone="no"?>
<!DOCTYPE svg PUBLIC "-//W3C//DTD SVG 20010904//EN"
 "http://www.w3.org/TR/2001/REC-SVG-20010904/DTD/svg10.dtd">
<svg version="1.0" xmlns="http://www.w3.org/2000/svg"
 width="200.000000pt" height="200.000000pt" viewBox="0 0 200.000000 200.000000"
 preserveAspectRatio="xMidYMid meet">

<g transform="translate(0.000000,200.000000) scale(0.100000,-0.100000)"
fill="#000000" stroke="none">
<path d="M345 1405 c-23 -23 -25 -31 -25 -131 0 -89 3 -109 17 -119 16 -12 16
-14 -1 -40 -16 -24 -16 -29 -3 -43 8 -10 18 -36 22 -60 6 -39 5 -44 -14 -49
-19 -5 -21 -13 -21 -80 0 -65 3 -77 25 -98 18 -19 35 -25 69 -25 25 0 48 5 51
10 8 13 52 13 60 0 9 -15 318 -13 313 2 -2 6 -24 16 -49 22 -34 9 -45 16 -47
34 -4 29 14 52 42 52 12 0 31 7 42 15 21 16 60 20 68 7 3 -5 8 -24 11 -42 3
-18 10 -41 16 -52 6 -11 8 -26 5 -34 -8 -22 12 -17 39 11 28 27 36 56 10 35
-8 -7 -22 -10 -30 -6 -25 9 -17 44 15 68 17 12 30 28 30 36 0 13 -3 12 -18 -1
-28 -25 -52 -22 -52 7 0 29 24 56 51 56 18 0 19 9 19 200 0 200 0 201 -25 225
l-24 25 -286 0 -286 0 -24 -25z m599 -37 c15 -24 -13 -53 -43 -43 -21 6 -29
43 -14 59 12 12 45 2 57 -16z m-204 -107 c60 -32 93 -83 98 -150 3 -42 -1 -69
-12 -92 -9 -18 -16 -44 -16 -59 0 -15 -9 -35 -21 -46 -20 -18 -21 -18 -34 -1
-11 15 -17 16 -34 8 -32 -17 -108 -13 -151 9 -21 11 -51 36 -67 57 -25 32 -28
45 -28 109 0 65 3 76 30 110 17 20 46 45 65 55 45 25 125 25 170 0z m-334
-146 c7 -18 -12 -45 -32 -45 -17 0 -18 32 -2 48 16 16 27 15 34 -3z m14 -74
c0 -25 -27 -48 -41 -34 -8 8 -7 17 0 32 14 26 41 28 41 2z m478 -38 c5 -31
-15 -63 -38 -63 -23 0 -27 37 -9 71 13 26 43 20 47 -8z m-360 -126 c5 -23 -24
-67 -43 -67 -22 0 -28 38 -10 66 18 28 48 29 53 1z m-80 -43 c2 -11 -6 -32
-17 -45 -18 -23 -21 -23 -37 -7 -15 14 -15 21 -4 48 15 36 53 39 58 4z m162
-8 c0 -43 -53 -76 -66 -41 -9 21 23 65 46 65 14 0 20 -7 20 -24z"/>
<path d="M613 1219 c-102 -30 -117 -186 -22 -235 59 -30 139 -11 173 41 22 34
23 108 2 140 -32 49 -95 71 -153 54z"/>
</g>
</svg>
