<svg id="Capa_1" enable-background="new 0 0 512 512" height="512" viewBox="0 0 512 512" width="512" xmlns="http://www.w3.org/2000/svg" xmlns:xlink="http://www.w3.org/1999/xlink"><radialGradient id="SVGID_1_" cx="56.13" cy="58.941" gradientUnits="userSpaceOnUse" r="298.374"><stop offset="0" stop-color="#e7f6ec"/><stop offset=".5145" stop-color="#daefc8"/><stop offset="1" stop-color="#cbe7af"/></radialGradient><radialGradient id="SVGID_2_" cx="-43.609" cy="-2194.836" gradientTransform="matrix(0 -1 1.107 0 2502.59 418.804)" gradientUnits="userSpaceOnUse" r="139.856"><stop offset="0" stop-color="#cbe7af"/><stop offset=".5156" stop-color="#add984"/><stop offset=".5601" stop-color="#aad880"/><stop offset=".9039" stop-color="#9fd26f"/><stop offset="1" stop-color="#9bd069"/></radialGradient><radialGradient id="SVGID_3_" cx="-224.376" cy="780.579" gradientTransform="matrix(0 -1 -.76 0 896.691 28.572)" gradientUnits="userSpaceOnUse" r="400.983"><stop offset="0" stop-color="#aad880"/><stop offset=".0981" stop-color="#a3d576"/><stop offset=".4843" stop-color="#8bc852"/><stop offset=".8405" stop-color="#65a15c"/><stop offset="1" stop-color="#528e61"/></radialGradient><radialGradient id="SVGID_4_" cx="-245.769" cy="-2538.066" gradientTransform="matrix(0 1 .747 0 2311.922 514.947)" gradientUnits="userSpaceOnUse" r="372.743"><stop offset="0" stop-color="#efc89d"/><stop offset=".4756" stop-color="#e9af72"/><stop offset=".65" stop-color="#e7a561"/><stop offset=".862" stop-color="#e59c50"/><stop offset="1" stop-color="#e49542"/></radialGradient><radialGradient id="SVGID_5_" cx="3.082" cy="-2436.868" gradientTransform="matrix(0 1 .747 0 2135.131 17.246)" gradientUnits="userSpaceOnUse" r="229.389"><stop offset="0" stop-color="#fbf1e2"/><stop offset=".5544" stop-color="#f4d8bc"/><stop offset="1" stop-color="#efc89d"/></radialGradient><radialGradient id="SVGID_6_" cx="-177.685" cy="1022.611" gradientTransform="matrix(0 1 -.84 0 1404.156 407.478)" gradientUnits="userSpaceOnUse" r="400.983"><stop offset="0" stop-color="#e7a561"/><stop offset=".1377" stop-color="#e7a25b"/><stop offset=".3221" stop-color="#e5994a"/><stop offset=".5323" stop-color="#e3892e"/><stop offset=".5974" stop-color="#e28424"/><stop offset="1" stop-color="#c85929"/></radialGradient><radialGradient id="SVGID_7_" cx="430.524" cy="1143.837" gradientTransform="matrix(.931 0 0 .112 -147.994 344.615)" gradientUnits="userSpaceOnUse" r="246.155"><stop offset="0" stop-color="#c6c1c8"/><stop offset=".2432" stop-color="#dddbdf"/><stop offset=".4962" stop-color="#f1f1f4"/><stop offset=".888" stop-color="#fff"/></radialGradient><g><path d="m43.844 364.217v-353.623h54.11l20.644 352.075 9.697 24.437z" fill="url(#SVGID_1_)"/><path d="m162.039 472.146h-54.11l-107.929-107.929h119.212z" fill="url(#SVGID_2_)"/><path d="m54.11 364.217h43.844v-353.623h128.17v353.623h43.844l-107.929 107.929z" fill="url(#SVGID_3_)"/><path d="m285.876 118.523v353.623h54.11l20.644-352.075 9.697-24.437z" fill="url(#SVGID_4_)"/><path d="m404.071 10.594h-54.11l-107.929 107.929h119.212z" fill="url(#SVGID_5_)"/><path d="m296.142 118.523h43.844v353.623h128.17v-353.623h43.844l-107.929-107.929z" fill="url(#SVGID_6_)"/><path d="m256 501.406c131.899 0 238.824-13.1 238.824-29.26h-477.648c0 16.16 106.925 29.26 238.824 29.26z" fill="url(#SVGID_7_)"/></g></svg>